<svg width="19" height="11" viewBox="0 0 19 11" fill="none" xmlns="http://www.w3.org/2000/svg">
<path fill-rule="evenodd" clip-rule="evenodd" d="M5.2508 0C4.94367 0 4.66066 0.166422 4.51135 0.434817L3.34114 2.53846H1.64279C1.46397 2.53846 1.30445 2.65089 1.24434 2.81931L0.640274 4.51162C0.54193 4.78713 0.746187 5.07692 1.03873 5.07692H2.16439V10.1538C2.16439 10.6212 2.54323 11 3.01055 11H4.98576C5.45308 11 5.83192 10.6212 5.83192 10.1538C5.83192 9.68653 6.21075 9.30769 6.67807 9.30769H9.49944H12.3208C12.7881 9.30769 13.167 9.68653 13.167 10.1538C13.167 10.6212 13.5458 11 14.0131 11H15.9883C16.4557 11 16.8345 10.6212 16.8345 10.1538V5.07692H17.9601C18.2527 5.07692 18.4569 4.78713 18.3586 4.51162L17.7545 2.81931C17.6944 2.65089 17.5349 2.53846 17.3561 2.53846H15.6577L14.4875 0.434816C14.3382 0.166421 14.0552 0 13.7481 0H5.2508Z" fill="#1A191C"/>
<path d="M5.59531 1.55851C5.65289 1.38575 5.81457 1.26923 5.99667 1.26923H13.0022C13.1843 1.26923 13.346 1.38575 13.4035 1.55851L13.9677 3.25082C14.059 3.52478 13.8551 3.80769 13.5663 3.80769H5.43257C5.1438 3.80769 4.93988 3.52478 5.0312 3.25082L5.59531 1.55851Z" fill="#E6E7EB"/>
<path d="M3.15332 6.34616C3.15332 6.1125 3.34274 5.92308 3.5764 5.92308H4.58415C4.7444 5.92308 4.8909 6.01362 4.96256 6.15695L5.38564 7.00311C5.52629 7.28441 5.32174 7.61539 5.00723 7.61539H3.5764C3.34274 7.61539 3.15332 7.42597 3.15332 7.19231V6.34616Z" fill="#E6E7EB"/>
<path d="M15.8456 6.34616C15.8456 6.1125 15.6562 5.92308 15.4225 5.92308H14.4147C14.2545 5.92308 14.108 6.01362 14.0363 6.15695L13.6133 7.00311C13.4726 7.28441 13.6772 7.61539 13.9917 7.61539H15.4225C15.6562 7.61539 15.8456 7.42597 15.8456 7.19231V6.34616Z" fill="#E6E7EB"/>
</svg>
