<svg width="16" height="16" viewBox="0 0 16 16" fill="none" xmlns="http://www.w3.org/2000/svg">
<path d="M0 4.59259C0 2.54709 1.6582 0.888885 3.7037 0.888885H12.2963C14.3418 0.888885 16 2.54709 16 4.59259V4.59259C16 5.00169 15.6684 5.33333 15.2593 5.33333H0.740741C0.331641 5.33333 0 5.00169 0 4.59259V4.59259Z" fill="#1A191C"/>
<path d="M0 12.1482C0 13.7846 1.32656 15.1111 2.96296 15.1111H13.037C14.6734 15.1111 16 13.7846 16 12.1482V12.1482C16 11.8209 15.7347 11.5556 15.4074 11.5556H0.592593C0.265313 11.5556 0 11.8209 0 12.1482V12.1482Z" fill="#1A191C"/>
<path d="M0.888916 8.44445C0.888916 7.70807 1.48587 7.11111 2.22225 7.11111H13.7778C14.5142 7.11111 15.1111 7.70807 15.1111 8.44445V8.44445C15.1111 9.18083 14.5142 9.77778 13.7778 9.77778H2.22225C1.48587 9.77778 0.888916 9.18083 0.888916 8.44445V8.44445Z" fill="#1A191C"/>
</svg>
