<svg width="14" height="15" viewBox="0 0 14 15" fill="none" xmlns="http://www.w3.org/2000/svg">
<path d="M0.825684 0.522876C0.825684 0.2341 1.05978 0 1.34856 0H9.12634C9.41511 0 9.64921 0.2341 9.64921 0.522876V14.4771C9.64921 14.7659 9.41511 15 9.12634 15H7.33595C7.04718 15 6.81308 14.7659 6.81308 14.4771V13.0065C6.81308 12.5734 6.46193 12.2222 6.02877 12.2222H5.23745H4.44613C4.01297 12.2222 3.66182 12.5734 3.66182 13.0065V14.4771C3.66182 14.7659 3.42772 15 3.13894 15H1.34856C1.05978 15 0.825684 14.7659 0.825684 14.4771V0.522876Z" fill="#1A191C"/>
<rect x="7.98254" y="7.15686" width="5.22876" height="7.84314" rx="0.522876" fill="#1A191C"/>
<rect x="2.75378" y="1.9281" width="2.0915" height="0.522876" fill="#E6E7EB" fill-opacity="0.5"/>
<rect x="2.75378" y="5.06535" width="2.0915" height="0.522876" fill="#E6E7EB" fill-opacity="0.5"/>
<rect x="2.75378" y="8.20261" width="2.0915" height="0.522876" fill="#E6E7EB" fill-opacity="0.5"/>
<rect x="2.75378" y="3.49673" width="2.0915" height="0.522876" fill="#E6E7EB" fill-opacity="0.5"/>
<rect x="2.75378" y="6.63399" width="2.0915" height="0.522876" fill="#E6E7EB" fill-opacity="0.5"/>
<rect x="2.75378" y="9.77124" width="2.0915" height="0.522876" fill="#E6E7EB" fill-opacity="0.5"/>
<rect x="5.89105" y="1.9281" width="2.0915" height="0.522876" fill="#E6E7EB" fill-opacity="0.5"/>
<rect x="5.89105" y="5.06535" width="2.0915" height="0.522876" fill="#E6E7EB" fill-opacity="0.5"/>
<rect x="5.89105" y="8.20261" width="2.0915" height="0.522876" fill="#E6E7EB" fill-opacity="0.5"/>
<rect x="9.55115" y="8.72549" width="2.0915" height="0.522876" fill="#E6E7EB" fill-opacity="0.5"/>
<rect x="9.55115" y="10.2941" width="2.0915" height="0.522876" fill="#E6E7EB" fill-opacity="0.5"/>
<rect x="9.55115" y="11.8627" width="2.0915" height="0.522876" fill="#E6E7EB" fill-opacity="0.5"/>
<rect x="5.89105" y="3.49673" width="2.0915" height="0.522876" fill="#E6E7EB" fill-opacity="0.5"/>
<rect x="5.89105" y="6.63399" width="2.0915" height="0.522876" fill="#E6E7EB" fill-opacity="0.5"/>
<rect x="5.89105" y="9.77124" width="2.0915" height="0.522876" fill="#E6E7EB" fill-opacity="0.5"/>
</svg>
