<svg width="15" height="14" viewBox="0 0 15 14" fill="none" xmlns="http://www.w3.org/2000/svg">
<path fill-rule="evenodd" clip-rule="evenodd" d="M6.26245 1.40977C6.26245 0.684439 6.85044 0.096447 7.57577 0.096447C8.3011 0.096447 8.88909 0.68444 8.88909 1.40977V4.55701C8.98165 4.58502 9.07358 4.62169 9.16402 4.6675L13.5426 6.8855C14.1926 7.21476 14.385 8.05275 13.9437 8.63255C13.655 9.01178 13.1647 9.17727 12.7053 9.05053L8.88909 7.99771V9.94635V10.2112C8.88909 10.7573 9.1017 11.2819 9.48187 11.674L10.9904 13.2296C11.2355 13.5423 11.0127 14 10.6154 14H7.57577H4.53615C4.13885 14 3.91607 13.5423 4.16114 13.2296L5.66967 11.674C6.04984 11.2819 6.26245 10.7573 6.26245 10.2112V9.94635V7.99772L2.44629 9.05053C1.98686 9.17727 1.49654 9.01178 1.20789 8.63255C0.766581 8.05275 0.958958 7.21476 1.60896 6.8855L5.98756 4.6675C6.07798 4.62169 6.1699 4.58503 6.26245 4.55702V1.40977Z" fill="#1A191C"/>
</svg>
